<svg version="1.1" id="Logo" x="0" y="0" viewBox="0 0 263 311" xml:space="preserve" width="263" height="311" fill="none" xmlns="http://www.w3.org/2000/svg"><path d="M232.91 252.81c.39-.55.75-1.12 1.08-1.69.07-.12.14-.24.2-.36.34-.6.65-1.22.93-1.85.03-.06.05-.12.08-.18.28-.64.54-1.3.76-1.96.02-.04.03-.09.05-.13.22-.67.41-1.36.58-2.05.02-.1.05-.19.07-.29.15-.68.28-1.36.38-2.04l.03-.27c.09-.7.16-1.41.2-2.11.51-11.24-5.65-21.8-27.72-36.32-17.55-11.56-37.87-18.64-56.94-23.47-22.28-5.64-52.8-7.86-75.75-3.69-28.53 5.2-51.41 26.06-51.4 55.16-.11 14.54 5.7 27.27 14.79 37.76 27.18 31.35 70.29 43.88 109.91 40.41 22.76-1.99 37.65-15.06 46.51-23.55 3.59-3.44 28.36-25.48 33.01-29.63l-.04-.05c.07-.07.13-.14.21-.21.49-.45.97-.92 1.42-1.41.05-.06.1-.11.15-.17.44-.5.85-1.02 1.24-1.55.08-.11.17-.22.25-.34v-.01Zm-45.93 11.16c-42.87-1.02-82.29-18.7-106.81-43.01-5.31-5.26-15.2-18.88-8.35-28.2 5.14-6.97 17.82-6.39 25.1-5.31 42.81 6.36 77.88 36.57 90.05 76.44v.06l.01.02Z" fill="#2F6DD5"/><path d="M186.98 263.97v-.07c-12.17-39.87-47.24-70.08-90.05-76.44-7.28-1.08-19.97-1.66-25.1 5.31-6.85 9.32 3.04 22.94 8.35 28.2 24.51 24.3 63.93 41.98 106.81 43.01l-.01-.01Zm42.66-7.47.04.05c-4.65 4.14-29.42 26.19-33.01 29.63-8.87 8.49-23.76 21.57-46.51 23.55-39.61 3.47-82.73-9.06-109.91-40.41-9.09-10.49-14.9-23.22-14.79-37.76-.01-29.11 22.88-49.96 51.4-55.16 22.96-4.17 53.47-1.95 75.75 3.69 19.07 4.82 39.39 11.91 56.94 23.47 22.07 14.52 28.23 25.08 27.72 36.32-.28 6.07-2.82 12.32-7.64 16.62h.01Z" fill="url(#a)"/><path d="M71.83 192.77c5.14-6.97 17.82-6.39 25.1-5.31 42.81 6.36 77.88 36.57 90.05 76.44v.06c10.39.25 20.99-.48 31.63-2.34l.9-.15c2.86-.56 5.37-1.6 7.53-2.99 6.51-4.18 9.92-11.51 10.24-18.59.51-11.24-5.65-21.8-27.72-36.32-17.55-11.56-37.87-18.64-56.94-23.47-22.28-5.64-52.8-7.86-75.75-3.69" fill="url(#b)"/><path d="M108.57 1.37H93.86c-.64 0-1.15.51-1.15 1.15V96c0 1.33-1.87 1.6-2.25.33L62.6 2.2c-.14-.49-.59-.82-1.1-.82H37.99c-.64 0-1.15.51-1.15 1.15v145.06c0 .64.51 1.15 1.15 1.15H52.7c.64 0 1.15-.51 1.15-1.15v-93.5c0-1.33 1.87-1.6 2.25-.33l27.87 94.14c.14.49.59.82 1.1.82h23.5c.64 0 1.15-.51 1.15-1.15V2.52c0-.64-.51-1.15-1.15-1.15ZM20.43 1.37H2.25A2.25 2.25 0 0 0 0 3.62v142.86a2.25 2.25 0 0 0 2.25 2.25h18.18a2.25 2.25 0 0 0 2.25-2.25V3.62a2.25 2.25 0 0 0-2.25-2.25Z" fill="#2F6DD5"/><path fill-rule="evenodd" clip-rule="evenodd" d="M183.34 18.2c-3.3-9.79-12.56-16.83-23.46-16.83h-33.74c-1.24 0-2.25 1.01-2.25 2.25V146.5c0 1.24 1.01 2.25 2.25 2.25h18.18c1.24 0 2.25-1.01 2.25-2.25v-44.01a2.5 2.5 0 0 1 2.5-2.5h10.81c10.94 0 20.22-7.09 23.49-16.93 3.7-10.1 5.71-21 5.71-32.38a94.16 94.16 0 0 0-5.75-32.48h.01Zm-19.78 63.48c-1.25 4.04-5.76 6.97-10.21 6.97h-4.52c-1.24 0-2.25-1.01-2.25-2.25V14.96c0-1.24 1.01-2.25 2.25-2.25h4.52c4.17 0 8.49 2.58 9.95 6.23 3.55 9.92 5.48 20.6 5.48 31.74 0 11.14-1.84 21.29-5.22 31Z" fill="#2F6DD5"/><path d="M243.45 71.64c-7.23-7.54-23.98-25.12-27.3-33.05-3.35-7.97-2.53-15.46 1.11-20.35 2.99-4.01 9.03-6.34 15.13-4.26 5.25 1.8 11.57 7.34 12.92 23.43.04 1.08.9 2.19 2.32 2.19h7.15c1.11 0 2.25-.84 2.3-2.28.55-9.04-2.06-18.43-5.14-23.11-5.38-8.97-11.76-12.45-21.07-13.63-9.4-1.2-22.13 2.65-28.73 13.11-5.77 9.15-7.35 23.89-3.98 35.4 4.27 14.59 8.31 18.98 14.99 27.01 1.12 1.35 7.98 8.79 10.39 11.1 10.5 10.01 16.11 17.86 17.06 30.59.76 10.1-4.65 19.08-14.01 18.64-5.65-.26-8.48-2.22-12.3-6.31-3.83-4.1-5.33-9.28-6.09-17.74-.28-3.14-.08-8.48-.06-10.15 0-1.11-.87-2.25-2.25-2.25h-8.86c-1.36 0-2.26 1.13-2.26 2.25.05 6.45.24 13.18.9 17 2.14 12.35 4.37 16.17 11.02 22.92 5.53 4.62 12.03 7.56 20.4 7.56 16.63 0 29.02-9.85 33.7-24.51 1.72-5.4 2.28-11.12 1.89-16.77-1.22-17.47-11.22-28.41-19.24-36.79h.01Z" fill="#2F6DD5"/><defs><radialGradient id="a" cx="0" cy="0" r="1" gradientUnits="userSpaceOnUse" gradientTransform="matrix(-142.0005 -42.49956 33.2154 -110.98004 79.5 199.77)"><stop offset=".081" stop-color="#002460"/><stop offset=".667" stop-color="#2E6BD2" stop-opacity=".02"/><stop offset=".88" stop-color="#2F6DD5" stop-opacity="0"/></radialGradient><linearGradient id="b" x1="130.69" y1="186.3" x2="220.25" y2="275.85" gradientUnits="userSpaceOnUse"><stop stop-color="#376CD4" stop-opacity="0"/><stop offset=".22" stop-color="#2453AC" stop-opacity=".34"/><stop offset=".5" stop-color="#103982" stop-opacity=".7"/><stop offset=".73" stop-color="#042969" stop-opacity=".92"/><stop offset=".88" stop-color="#002460"/></linearGradient></defs></svg>
